<svg height="654" width="720" xmlns="http://www.w3.org/2000/svg">
<rect height="654" fill="#555" width="720"></rect>
<text fill="#7f7" font-family="Courier New" font-size="12" xml:space="preserve">
<tspan x="10" y="26">9 megabytes installed</tspan>
<tspan x="10" y="42"></tspan>
<tspan x="10" y="58">node_modules</tspan>
<tspan x="10" y="74">└─┬ openid-client@1.8.1 </tspan>
<tspan x="10" y="90">  ├── base64url@2.0.0 </tspan>
<tspan x="10" y="106">  ├─┬ create-error-class@3.0.2 </tspan>
<tspan x="10" y="122">  │ └── capture-stack-trace@1.0.0 </tspan>
<tspan x="10" y="138">  ├─┬ got@6.7.1 </tspan>
<tspan x="10" y="154">  │ ├── duplexer3@0.1.4 </tspan>
<tspan x="10" y="170">  │ ├── get-stream@3.0.0 </tspan>
<tspan x="10" y="186">  │ ├── is-redirect@1.0.0 </tspan>
<tspan x="10" y="202">  │ ├── is-retry-allowed@1.1.0 </tspan>
<tspan x="10" y="218">  │ ├── is-stream@1.1.0 </tspan>
<tspan x="10" y="234">  │ ├── lowercase-keys@1.0.0 </tspan>
<tspan x="10" y="250">  │ ├── safe-buffer@5.0.1 </tspan>
<tspan x="10" y="266">  │ ├── timed-out@4.0.1 </tspan>
<tspan x="10" y="282">  │ ├── unzip-response@2.0.1 </tspan>
<tspan x="10" y="298">  │ └─┬ url-parse-lax@1.0.0 </tspan>
<tspan x="10" y="314">  │   └── prepend-http@1.0.4 </tspan>
<tspan x="10" y="330">  ├── lodash@4.17.4 </tspan>
<tspan x="10" y="346">  ├─┬ lru-cache@4.0.2 </tspan>
<tspan x="10" y="362">  │ ├── pseudomap@1.0.2 </tspan>
<tspan x="10" y="378">  │ └── yallist@2.1.2 </tspan>
<tspan x="10" y="394">  ├─┬ node-jose@0.9.4 </tspan>
<tspan x="10" y="410">  │ ├── es6-promise@4.1.0 </tspan>
<tspan x="10" y="426">  │ ├── lodash.assign@4.2.0 </tspan>
<tspan x="10" y="442">  │ ├── lodash.clone@4.5.0 </tspan>
<tspan x="10" y="458">  │ ├── lodash.fill@3.4.0 </tspan>
<tspan x="10" y="474">  │ ├── lodash.flatten@4.4.0 </tspan>
<tspan x="10" y="490">  │ ├── lodash.intersection@4.4.0 </tspan>
<tspan x="10" y="506">  │ ├── lodash.merge@4.6.0 </tspan>
<tspan x="10" y="522">  │ ├── lodash.omit@4.5.0 </tspan>
<tspan x="10" y="538">  │ ├── lodash.partialright@4.2.1 </tspan>
<tspan x="10" y="554">  │ ├── lodash.pick@4.4.0 </tspan>
<tspan x="10" y="570">  │ ├── lodash.uniq@4.5.0 </tspan>
<tspan x="10" y="586">  │ ├── long@3.2.0 </tspan>
<tspan x="10" y="602">  │ └── node-forge@0.7.1 </tspan>
<tspan x="10" y="618">  ├── oidc-token-hash@1.0.1 </tspan>
<tspan x="10" y="634">  └── uuid@3.0.1</tspan>
</text>
</svg>
